<?xml version="1.0" encoding="UTF-8"?>
<svg version="1.1" xmlns="http://www.w3.org/2000/svg" width="242" height="230">
<path d="M0 0 C79.86 0 159.72 0 242 0 C242 75.9 242 151.8 242 230 C162.14 230 82.28 230 0 230 C0 154.1 0 78.2 0 0 Z " fill="#FDC500" transform="translate(0,0)"/>
<path d="M0 0 C79.86 0 159.72 0 242 0 C242 75.9 242 151.8 242 230 C162.14 230 82.28 230 0 230 C0 154.1 0 78.2 0 0 Z M50 34 C49.06542969 34.77085938 48.13085938 35.54171875 47.16796875 36.3359375 C25.96936691 54.65864511 13.933369 80.40012299 11.8359375 108.17236328 C10.27508743 136.72941601 20.70621889 162.60134284 39.25 184.0625 C58.70312767 205.04266499 86.06676262 218.11620754 114.79296875 219.23828125 C142.78711832 219.81553382 169.46820042 212.47819891 191 194 C191.83273438 193.2884375 192.66546875 192.576875 193.5234375 191.84375 C214.23054179 173.68616906 227.28019741 148.59664451 229.14038086 120.91064453 C230.42122228 92.84712153 221.71261937 66.03969988 202.83984375 45.02734375 C183.23770618 23.87679082 156.87109185 10.58065246 127.87915039 8.87524414 C99.30009278 7.84965694 72.16996099 15.50957228 50 34 Z " fill="#000000" transform="translate(0,0)"/>
<path d="M0 0 C10.05465836 8.31933662 16.8838702 20.32904042 18.62109375 33.28515625 C19.76920255 48.66228553 15.80932099 62.0141216 5.99609375 73.91015625 C-2.51269086 83.075928 -13.84240674 88.62746663 -26.32421875 89.48828125 C-40.82274101 89.70201868 -53.59249935 85.64000144 -64.27734375 75.578125 C-74.27528311 64.66959265 -78.75443795 51.35731787 -78.58984375 36.7578125 C-77.78596464 23.52358045 -72.06969477 11.36065661 -62.37890625 2.28515625 C-44.19114256 -12.91283807 -19.30474473 -13.91589973 0 0 Z " fill="#000000" transform="translate(151.37890625,73.71484375)"/>
</svg>
